<svg width="24" height="24" viewBox="0 0 24 24" fill="none" xmlns="http://www.w3.org/2000/svg">
<path d="M22.4077 1.02215L1.30704 7.73785C1.22064 7.76528 1.14503 7.81715 1.09026 7.88657C1.03548 7.956 1.00414 8.03969 1.00038 8.12653C0.996626 8.21337 1.02064 8.29924 1.06923 8.37274C1.11783 8.44624 1.1887 8.50388 1.27243 8.53801L9.02674 11.7105C9.06737 11.7273 9.11187 11.7338 9.15589 11.7293C9.19992 11.7248 9.24197 11.7094 9.27795 11.6848L16.8797 6.49969C17.1156 6.34063 17.4052 6.61714 17.2386 6.84226L11.8068 14.0987C11.7814 14.1331 11.7657 14.173 11.7612 14.2148C11.7567 14.2566 11.7636 14.2988 11.7811 14.3373L15.1033 21.7394C15.1389 21.8194 15.1992 21.8871 15.2761 21.9336C15.353 21.9801 15.443 22.0031 15.5339 21.9997C15.6249 21.9962 15.7126 21.9664 15.7854 21.9143C15.8582 21.8621 15.9127 21.79 15.9415 21.7076L22.9768 1.56415C23.0033 1.48865 23.0072 1.4076 22.9881 1.3301C22.969 1.2526 22.9276 1.18172 22.8686 1.12542C22.8096 1.06912 22.7354 1.02964 22.6542 1.01139C22.573 0.99315 22.4868 0.996874 22.4077 1.02215Z" fill="black"/>
</svg>
