<svg width="32" height="32" viewBox="0 0 32 32" fill="none" xmlns="http://www.w3.org/2000/svg">
<path d="M6 23H26V4H8C7.46957 4 6.96086 4.21071 6.58579 4.58579C6.21071 4.96086 6 5.46957 6 6V23ZM8 2H27C27.2652 2 27.5196 2.10536 27.7071 2.29289C27.8946 2.48043 28 2.73478 28 3V24C28 24.2652 27.8946 24.5196 27.7071 24.7071C27.5196 24.8946 27.2652 25 27 25H5L4 26.798V6C4 4.93913 4.42143 3.92172 5.17157 3.17157C5.92172 2.42143 6.93913 2 8 2Z" fill="black"/>
<path d="M7.5 25C7.10218 25 6.72064 25.158 6.43934 25.4393C6.15804 25.7206 6 26.1022 6 26.5C6 26.8978 6.15804 27.2794 6.43934 27.5607C6.72064 27.842 7.10218 28 7.5 28H26V25H7.5ZM7.5 23H28V28C28 28.5304 27.7893 29.0391 27.4142 29.4142C27.0391 29.7893 26.5304 30 26 30H7.5C6.57174 30 5.6815 29.6313 5.02513 28.9749C4.36875 28.3185 4 27.4283 4 26.5C4 25.5717 4.36875 24.6815 5.02513 24.0251C5.6815 23.3687 6.57174 23 7.5 23ZM12 4V11.84L15 9.44L18 11.84V4H12ZM10 2H20V13.92C19.9997 14.1082 19.9464 14.2924 19.8461 14.4517C19.7458 14.6109 19.6026 14.7385 19.4329 14.82C19.2633 14.9015 19.0742 14.9334 18.8872 14.9122C18.7002 14.891 18.523 14.8174 18.376 14.7L15 12L11.624 14.7C11.477 14.8174 11.2998 14.891 11.1128 14.9122C10.9258 14.9334 10.7367 14.9015 10.5671 14.82C10.3974 14.7385 10.2542 14.6109 10.1539 14.4517C10.0536 14.2924 10.0003 14.1082 10 13.92V2Z" fill="black"/>
</svg>
