<svg width="40" height="40" viewBox="0 0 40 40" fill="none" xmlns="http://www.w3.org/2000/svg">
<path d="M33.7143 22.2857H22.2857V33.7143C22.2857 34.3205 22.0449 34.9019 21.6162 35.3305C21.1876 35.7592 20.6062 36 20 36C19.3938 36 18.8124 35.7592 18.3838 35.3305C17.9551 34.9019 17.7143 34.3205 17.7143 33.7143V22.2857H6.28571C5.67951 22.2857 5.09813 22.0449 4.66947 21.6162C4.24082 21.1876 4 20.6062 4 20C4 19.3938 4.24082 18.8124 4.66947 18.3838C5.09813 17.9551 5.67951 17.7143 6.28571 17.7143H17.7143V6.28571C17.7143 5.67951 17.9551 5.09812 18.3838 4.66947C18.8124 4.24081 19.3938 4 20 4C20.6062 4 21.1876 4.24081 21.6162 4.66947C22.0449 5.09812 22.2857 5.67951 22.2857 6.28571V17.7143H33.7143C34.3205 17.7143 34.9019 17.9551 35.3305 18.3838C35.7592 18.8124 36 19.3938 36 20C36 20.6062 35.7592 21.1876 35.3305 21.6162C34.9019 22.0449 34.3205 22.2857 33.7143 22.2857Z" fill="#2E6107"/>
</svg>
