<svg width="32" height="32" viewBox="0 0 32 32" fill="none" xmlns="http://www.w3.org/2000/svg">
<path d="M16 2.66667C17.3185 2.66667 18.6075 3.05766 19.7038 3.79021C20.8001 4.52275 21.6546 5.56394 22.1592 6.78211C22.6638 8.00029 22.7958 9.34073 22.5386 10.6339C22.2813 11.9271 21.6464 13.115 20.714 14.0474C19.7817 14.9797 18.5938 15.6147 17.3006 15.8719C16.0074 16.1291 14.6669 15.9971 13.4488 15.4925C12.2306 14.988 11.1894 14.1335 10.4569 13.0371C9.72432 11.9408 9.33332 10.6519 9.33332 9.33334L9.33999 9.044C9.41455 7.32767 10.1488 5.70638 11.3896 4.51822C12.6304 3.33006 14.282 2.66677 16 2.66667ZM18.6667 18.6667C20.4348 18.6667 22.1305 19.369 23.3807 20.6193C24.6309 21.8695 25.3333 23.5652 25.3333 25.3333V26.6667C25.3333 27.3739 25.0524 28.0522 24.5523 28.5523C24.0522 29.0524 23.3739 29.3333 22.6667 29.3333H9.33332C8.62608 29.3333 7.9478 29.0524 7.4477 28.5523C6.94761 28.0522 6.66666 27.3739 6.66666 26.6667V25.3333C6.66666 23.5652 7.36904 21.8695 8.61928 20.6193C9.86952 19.369 11.5652 18.6667 13.3333 18.6667H18.6667Z" fill="black"/>
</svg>
